<svg width="144" height="144" viewBox="0 0 144 144" fill="none" xmlns="http://www.w3.org/2000/svg">
<g clip-path="url(#clip0_254_392)">
<path d="M139.5 108C139.5 105.613 138.552 103.324 136.864 101.636C135.176 99.9482 132.887 99 130.5 99C128.113 99 125.824 99.9482 124.136 101.636C122.448 103.324 121.5 105.613 121.5 108C121.5 112.97 130.5 126 130.5 126C130.5 126 139.5 112.97 139.5 108Z" fill="#E9A648"/>
<path d="M128.649 127.28C127.08 125.007 119.25 113.4 119.25 108C119.25 105.016 120.435 102.155 122.545 100.045C124.655 97.9353 127.516 96.75 130.5 96.75C133.484 96.75 136.345 97.9353 138.455 100.045C140.565 102.155 141.75 105.016 141.75 108C141.75 113.4 133.92 125.007 132.351 127.28C132.144 127.579 131.867 127.824 131.545 127.993C131.222 128.162 130.864 128.25 130.5 128.25C130.136 128.25 129.778 128.162 129.455 127.993C129.133 127.824 128.856 127.579 128.649 127.28ZM130.5 101.25C128.71 101.25 126.993 101.961 125.727 103.227C124.461 104.493 123.75 106.21 123.75 108C123.75 110.461 127.263 116.873 130.5 121.933C133.737 116.871 137.25 110.458 137.25 108C137.25 106.21 136.539 104.493 135.273 103.227C134.007 101.961 132.29 101.25 130.5 101.25Z" fill="black"/>
<path d="M82.6653 98.505C82.1507 100.053 82.0099 101.701 82.2543 103.314C82.4987 104.928 83.1214 106.46 84.0715 107.786C84.7592 108.747 85.2329 109.844 85.4608 111.003C85.6887 112.163 85.6654 113.357 85.3924 114.507C85.1195 115.656 84.6033 116.734 83.8786 117.667C83.154 118.601 82.2377 119.367 81.1915 119.917C73.6691 123.837 65.3259 125.921 56.8437 126C27.4812 126.312 2.63837 102.094 2.25025 72.7228C1.85931 42.5588 26.1987 18 56.2756 18C91.7777 18.0169 117.869 51.9975 108.284 86.4872C107.733 88.478 106.457 90.1908 104.708 91.2893C102.958 92.3878 100.861 92.7926 98.8287 92.4244L94.3287 91.6031C91.8794 91.1564 89.3511 91.6085 87.2084 92.8765C85.0657 94.1444 83.4525 96.143 82.6653 98.505Z" fill="#E0C3AA"/>
<path d="M108.282 79.7371C107.73 81.7279 106.455 83.4407 104.705 84.5392C102.956 85.6377 100.859 86.0425 98.826 85.6743L94.326 84.853C91.8775 84.4078 89.3506 84.8606 87.2091 86.1285C85.0676 87.3963 83.4553 89.394 82.6682 91.7549C81.9486 93.9139 81.9615 96.2499 82.7048 98.4009C83.5108 96.0666 85.1256 94.0979 87.2572 92.851C89.3888 91.6042 91.8963 91.1615 94.326 91.603L98.826 92.4243C100.859 92.7925 102.956 92.3877 104.705 91.2892C106.455 90.1907 107.73 88.4779 108.282 86.4871C109.89 80.6864 110.518 74.6579 110.141 68.6502C109.91 72.4007 109.287 76.1166 108.282 79.7371ZM81.1804 113.164C73.6616 117.083 65.3225 119.169 56.8438 119.25C28.3616 119.554 4.13477 96.7668 2.35727 68.6024C0.40258 100.063 26.317 126.326 56.8438 126C65.3222 125.919 73.6614 123.835 81.1804 119.916C83.041 118.94 84.4596 117.291 85.1477 115.306C85.8358 113.32 85.7417 111.147 84.8845 109.229C84.1314 110.922 82.8254 112.31 81.1804 113.164Z" fill="#D0A37F"/>
<path d="M14.6252 109.51C14.2246 109.068 14.0162 108.485 14.0457 107.889C14.0603 107.593 14.133 107.304 14.2594 107.037C14.3859 106.77 14.5637 106.53 14.7827 106.332C15.0017 106.134 15.2576 105.98 15.5359 105.881C15.8141 105.782 16.1093 105.738 16.4044 105.753C17.0004 105.782 17.5603 106.047 17.9608 106.49C34.0314 124.239 59.3721 128.748 80.1396 117.917C80.9 117.517 81.5659 116.958 82.0924 116.279C82.6189 115.6 82.9937 114.815 83.1917 113.979C83.3897 113.143 83.4063 112.274 83.2403 111.431C83.0742 110.588 82.7295 109.79 82.2292 109.091C80.7733 107.052 79.9588 104.625 79.8901 102.121C79.8213 99.6164 80.5014 97.1485 81.8433 95.0328C83.1852 92.9171 85.1279 91.2499 87.4228 90.2446C89.7176 89.2393 92.2602 88.9416 94.7252 89.3896L99.2252 90.208C100.706 90.4834 102.237 90.1917 103.513 89.3909C104.789 88.5901 105.717 87.3387 106.113 85.8852C115.276 52.9227 90.3883 20.2499 56.2502 20.2499C49.3942 20.2451 42.6058 21.6035 36.2796 24.2461C29.9534 26.8886 24.2157 30.7626 19.4003 35.6427C14.5848 40.5228 10.7877 46.3116 8.22971 52.6725C5.67174 59.0333 4.40399 65.8393 4.50019 72.6946C4.64616 82.4203 7.57406 91.9009 12.9377 100.015C13.1085 100.262 13.2283 100.54 13.2899 100.834C13.3516 101.128 13.3538 101.431 13.2965 101.726C13.2392 102.02 13.1236 102.3 12.9564 102.55C12.7892 102.799 12.5738 103.012 12.323 103.177C12.0721 103.342 11.7908 103.454 11.4956 103.509C11.2005 103.563 10.8974 103.558 10.6043 103.494C10.3112 103.429 10.0339 103.307 9.78887 103.133C9.54381 102.96 9.3359 102.739 9.17737 102.485C3.34126 93.6543 0.156604 83.3371 0.000185387 72.7536C-0.104587 65.3023 1.27326 57.9044 4.0536 50.9904C6.83394 44.0764 10.9613 37.7842 16.1955 32.4798C21.4298 27.1754 27.6665 22.9647 34.5428 20.0926C41.4192 17.2205 48.7981 15.7443 56.2502 15.7499C87.2355 15.7499 112.5 40.9611 112.5 71.9999C112.504 77.0991 111.815 82.1751 110.453 87.089C109.76 89.624 108.141 91.8065 105.916 93.2045C103.691 94.6025 101.022 95.114 98.4377 94.6377L93.9377 93.8165C92.3544 93.5297 90.7217 93.7216 89.2481 94.3677C87.7745 95.0138 86.5271 96.0847 85.6653 97.4435C84.8036 98.8022 84.3666 100.387 84.4103 101.996C84.4541 103.604 84.9765 105.163 85.9108 106.473C86.785 107.696 87.387 109.091 87.6761 110.567C87.9653 112.042 87.935 113.562 87.5872 115.024C87.2394 116.486 86.5822 117.857 85.6599 119.044C84.7376 120.231 83.5716 121.207 82.2405 121.905C59.5296 133.743 31.9755 128.691 14.6252 109.51Z" fill="black"/>
<path d="M141.75 89.9999H119.25L123.328 24.7499C123.442 22.9254 124.248 21.2131 125.58 19.9616C126.913 18.71 128.672 18.0133 130.5 18.0133C132.328 18.0133 134.087 18.71 135.42 19.9616C136.752 21.2131 137.558 22.9254 137.672 24.7499L141.75 89.9999Z" fill="#E9A648"/>
<path d="M119.672 83.25L119.25 90H141.75L141.328 83.25H119.672Z" fill="#D08840"/>
<path d="M141.75 92.25H119.25C118.942 92.2506 118.638 92.188 118.355 92.0663C118.073 91.9445 117.818 91.7661 117.607 91.542C117.396 91.318 117.234 91.053 117.129 90.7636C117.025 90.4742 116.981 90.1664 117 89.8593L121.078 24.6093C121.21 22.1995 122.26 19.9318 124.012 18.2724C125.765 16.6131 128.087 15.6884 130.5 15.6884C132.913 15.6884 135.235 16.6131 136.988 18.2724C138.74 19.9318 139.79 22.1995 139.922 24.6093L142.313 62.8593C142.331 63.1548 142.291 63.451 142.195 63.7311C142.099 64.0111 141.949 64.2695 141.753 64.4915C141.357 64.9398 140.8 65.2127 140.203 65.25C139.908 65.2684 139.611 65.2285 139.331 65.1325C139.051 65.0365 138.793 64.8863 138.571 64.6904C138.123 64.2948 137.85 63.7373 137.813 63.1406L135.419 24.8906C135.335 23.6427 134.779 22.4735 133.866 21.6195C132.952 20.7655 131.748 20.2904 130.497 20.2904C129.246 20.2904 128.042 20.7655 127.129 21.6195C126.215 22.4735 125.66 23.6427 125.575 24.8906L121.646 87.75H139.365L138.375 72.1406C138.338 71.5438 138.539 70.9567 138.935 70.5084C139.33 70.0601 139.888 69.7873 140.484 69.75C141.081 69.7127 141.668 69.9139 142.117 70.3095C142.565 70.7051 142.838 71.2626 142.875 71.8593L144 89.8593C144.019 90.1664 143.975 90.4742 143.871 90.7636C143.766 91.053 143.604 91.318 143.393 91.542C143.182 91.7661 142.927 91.9445 142.645 92.0663C142.362 92.188 142.058 92.2506 141.75 92.25Z" fill="black"/>
<path d="M139.5 90H121.5V99H139.5V90Z" fill="#EAD590"/>
<path d="M139.5 101.25H121.5C120.903 101.25 120.331 101.013 119.909 100.591C119.487 100.169 119.25 99.5967 119.25 99V90C119.25 89.4033 119.487 88.831 119.909 88.409C120.331 87.9871 120.903 87.75 121.5 87.75H139.5C140.097 87.75 140.669 87.9871 141.091 88.409C141.513 88.831 141.75 89.4033 141.75 90V99C141.75 99.5967 141.513 100.169 141.091 100.591C140.669 101.013 140.097 101.25 139.5 101.25ZM123.75 96.75H137.25V92.25H123.75V96.75Z" fill="black"/>
<path d="M130.5 108C129.903 108 129.331 107.763 128.909 107.341C128.487 106.919 128.25 106.347 128.25 105.75V99C128.25 98.4033 128.487 97.831 128.909 97.409C129.331 96.9871 129.903 96.75 130.5 96.75C131.097 96.75 131.669 96.9871 132.091 97.409C132.513 97.831 132.75 98.4033 132.75 99V105.75C132.75 106.347 132.513 106.919 132.091 107.341C131.669 107.763 131.097 108 130.5 108Z" fill="black"/>
<path d="M56.25 117C64.9485 117 72 109.948 72 101.25C72 92.5515 64.9485 85.5 56.25 85.5C47.5515 85.5 40.5 92.5515 40.5 101.25C40.5 109.948 47.5515 117 56.25 117Z" fill="#CD4F5F"/>
<path d="M56.25 110.25C52.6591 110.25 49.176 109.023 46.378 106.772C43.58 104.522 41.6351 101.382 40.8656 97.875C40.3612 100.175 40.3789 102.559 40.9176 104.852C41.4562 107.144 42.502 109.286 43.978 111.121C45.4541 112.956 47.3227 114.437 49.4465 115.454C51.5703 116.471 53.8952 116.999 56.25 116.999C58.6048 116.999 60.9297 116.471 63.0535 115.454C65.1773 114.437 67.0459 112.956 68.522 111.121C69.998 109.286 71.0438 107.144 71.5824 104.852C72.1211 102.559 72.1388 100.175 71.6344 97.875C70.8649 101.382 68.92 104.522 66.122 106.772C63.324 109.023 59.8409 110.25 56.25 110.25Z" fill="#B24654"/>
<path d="M56.25 119.25C52.6899 119.25 49.2098 118.194 46.2497 116.216C43.2897 114.239 40.9826 111.427 39.6202 108.138C38.2578 104.849 37.9013 101.23 38.5959 97.7384C39.2904 94.2467 41.0047 91.0394 43.5221 88.5221C46.0394 86.0047 49.2467 84.2904 52.7384 83.5959C56.23 82.9013 59.8492 83.2578 63.1383 84.6202C66.4274 85.9826 69.2386 88.2897 71.2165 91.2497C73.1943 94.2098 74.25 97.6899 74.25 101.25C74.2448 106.022 72.3467 110.598 68.9722 113.972C65.5977 117.347 61.0223 119.245 56.25 119.25ZM56.25 87.75C53.58 87.75 50.9699 88.5418 48.7498 90.0252C46.5297 91.5086 44.7994 93.617 43.7776 96.0838C42.7559 98.5506 42.4885 101.265 43.0094 103.884C43.5303 106.502 44.8161 108.908 46.7041 110.796C48.5921 112.684 50.9975 113.97 53.6163 114.491C56.235 115.012 58.9494 114.744 61.4162 113.722C63.883 112.701 65.9915 110.97 67.4748 108.75C68.9582 106.53 69.75 103.92 69.75 101.25C69.7463 97.6707 68.3228 94.2391 65.7918 91.7082C63.2609 89.1772 59.8293 87.7537 56.25 87.75Z" fill="black"/>
<path d="M27 85.5C34.4558 85.5 40.5 79.4558 40.5 72C40.5 64.5442 34.4558 58.5 27 58.5C19.5442 58.5 13.5 64.5442 13.5 72C13.5 79.4558 19.5442 85.5 27 85.5Z" fill="#B1DA7A"/>
<path d="M27.0001 78.75C24.0065 78.7509 21.0976 77.7567 18.7307 75.9239C16.3638 74.0911 14.6732 71.5235 13.9248 68.625C13.4143 70.6187 13.3664 72.7028 13.7848 74.7178C14.2032 76.7329 15.0767 78.6256 16.3386 80.2514C17.6005 81.8771 19.2175 83.1928 21.0658 84.0979C22.9141 85.003 24.9449 85.4735 27.0029 85.4735C29.061 85.4735 31.0918 85.003 32.9401 84.0979C34.7884 83.1928 36.4053 81.8771 37.6672 80.2514C38.9292 78.6256 39.8027 76.7329 40.2211 74.7178C40.6394 72.7028 40.5915 70.6187 40.0811 68.625C39.3324 71.5245 37.641 74.0927 35.273 75.9256C32.9049 77.7586 29.9947 78.7521 27.0001 78.75Z" fill="#96BF5B"/>
<path d="M27 87.75C23.885 87.75 20.8399 86.8263 18.2498 85.0957C15.6597 83.365 13.641 80.9052 12.4489 78.0273C11.2568 75.1493 10.9449 71.9825 11.5526 68.9273C12.1604 65.8721 13.6604 63.0658 15.8631 60.8631C18.0658 58.6604 20.8721 57.1604 23.9273 56.5526C26.9825 55.9449 30.1493 56.2568 33.0273 57.4489C35.9052 58.641 38.365 60.6597 40.0957 63.2498C41.8263 65.8398 42.75 68.885 42.75 72C42.7455 76.1758 41.0847 80.1793 38.132 83.132C35.1793 86.0847 31.1758 87.7455 27 87.75ZM27 60.75C24.775 60.75 22.5999 61.4098 20.7498 62.646C18.8998 63.8821 17.4578 65.6391 16.6064 67.6948C15.7549 69.7505 15.5321 72.0125 15.9662 74.1948C16.4003 76.3771 17.4717 78.3816 19.0451 79.955C20.6184 81.5283 22.623 82.5998 24.8052 83.0338C26.9875 83.4679 29.2495 83.2451 31.3052 82.3937C33.3609 81.5422 35.1179 80.1002 36.354 78.2502C37.5902 76.4001 38.25 74.225 38.25 72C38.25 69.0163 37.0647 66.1548 34.955 64.0451C32.8452 61.9353 29.9837 60.75 27 60.75Z" fill="black"/>
<path d="M42.75 51.75C48.9632 51.75 54 46.7132 54 40.5C54 34.2868 48.9632 29.25 42.75 29.25C36.5368 29.25 31.5 34.2868 31.5 40.5C31.5 46.7132 36.5368 51.75 42.75 51.75Z" fill="#E38343"/>
<path d="M42.75 45C40.3554 45.0007 38.0231 44.2374 36.0923 42.8211C34.1615 41.4047 32.7331 39.4093 32.0147 37.125C31.4868 38.8096 31.3628 40.5948 31.6527 42.3362C31.9426 44.0776 32.6383 45.7264 33.6834 47.1492C34.7286 48.5719 36.0939 49.7287 37.6689 50.5261C39.244 51.3234 40.9846 51.7389 42.75 51.7389C44.5154 51.7389 46.256 51.3234 47.8311 50.5261C49.4061 49.7287 50.7714 48.5719 51.8166 47.1492C52.8617 45.7264 53.5574 44.0776 53.8473 42.3362C54.1372 40.5948 54.0132 38.8096 53.4853 37.125C52.7669 39.4093 51.3385 41.4047 49.4077 42.8211C47.4769 44.2374 45.1446 45.0007 42.75 45Z" fill="#DF6117"/>
<path d="M42.75 54C40.08 54 37.4699 53.2082 35.2498 51.7248C33.0297 50.2414 31.2994 48.133 30.2776 45.6662C29.2558 43.1994 28.9885 40.485 29.5094 37.8663C30.0303 35.2475 31.3161 32.8421 33.2041 30.9541C35.0921 29.0661 37.4975 27.7803 40.1163 27.2594C42.735 26.7385 45.4494 27.0058 47.9162 28.0276C50.383 29.0494 52.4914 30.7797 53.9748 32.9998C55.4582 35.2199 56.25 37.83 56.25 40.5C56.2463 44.0793 54.8228 47.5109 52.2918 50.0418C49.7609 52.5728 46.3293 53.9963 42.75 54ZM42.75 31.5C40.97 31.5 39.2299 32.0278 37.7499 33.0168C36.2698 34.0057 35.1163 35.4113 34.4351 37.0559C33.7539 38.7004 33.5757 40.51 33.9229 42.2558C34.2702 44.0016 35.1274 45.6053 36.386 46.864C37.6447 48.1226 39.2484 48.9798 40.9942 49.3271C42.74 49.6743 44.5496 49.4961 46.1942 48.8149C47.8387 48.1337 49.2443 46.9802 50.2332 45.5001C51.2222 44.0201 51.75 42.28 51.75 40.5C51.75 38.1131 50.8018 35.8239 49.114 34.136C47.4261 32.4482 45.137 31.5 42.75 31.5Z" fill="black"/>
<path d="M76.5 51.75C81.4706 51.75 85.5 47.7206 85.5 42.75C85.5 37.7794 81.4706 33.75 76.5 33.75C71.5294 33.75 67.5 37.7794 67.5 42.75C67.5 47.7206 71.5294 51.75 76.5 51.75Z" fill="#A8EDFD"/>
<path d="M76.5 45C74.707 45.0003 72.9548 44.465 71.468 43.4628C69.9812 42.4606 68.8277 41.0372 68.1553 39.375C67.6034 40.7411 67.3953 42.2219 67.5493 43.6872C67.7033 45.1525 68.2148 46.5576 69.0387 47.7792C69.8626 49.0007 70.9738 50.0012 72.2748 50.6929C73.5757 51.3846 75.0266 51.7464 76.5 51.7464C77.9734 51.7464 79.4243 51.3846 80.7252 50.6929C82.0262 50.0012 83.1374 49.0007 83.9613 47.7792C84.7852 46.5576 85.2967 45.1525 85.4507 43.6872C85.6047 42.2219 85.3966 40.7411 84.8447 39.375C84.1723 41.0372 83.0188 42.4606 81.532 43.4628C80.0452 44.465 78.293 45.0003 76.5 45Z" fill="#8BD4DE"/>
<path d="M76.5 54C74.275 54 72.0999 53.3402 70.2498 52.104C68.3998 50.8679 66.9578 49.1109 66.1064 47.0552C65.2549 44.9995 65.0321 42.7375 65.4662 40.5552C65.9003 38.373 66.9717 36.3684 68.5451 34.7951C70.1184 33.2217 72.123 32.1503 74.3052 31.7162C76.4875 31.2821 78.7495 31.5049 80.8052 32.3564C82.8609 33.2078 84.6179 34.6498 85.854 36.4998C87.0902 38.3499 87.75 40.525 87.75 42.75C87.75 44.2274 87.459 45.6903 86.8936 47.0552C86.3283 48.4201 85.4996 49.6603 84.455 50.705C83.4103 51.7496 82.1701 52.5783 80.8052 53.1437C79.4403 53.709 77.9774 54 76.5 54ZM76.5 36C75.165 36 73.8599 36.3959 72.7499 37.1376C71.6399 37.8793 70.7747 38.9335 70.2638 40.1669C69.7529 41.4003 69.6193 42.7575 69.8797 44.0669C70.1402 45.3762 70.783 46.579 71.727 47.523C72.671 48.467 73.8738 49.1099 75.1831 49.3703C76.4925 49.6308 77.8497 49.4971 79.0831 48.9862C80.3165 48.4753 81.3707 47.6101 82.1124 46.5001C82.8541 45.3901 83.25 44.085 83.25 42.75C83.25 40.9598 82.5388 39.2429 81.273 37.977C80.0071 36.7112 78.2902 36 76.5 36Z" fill="black"/>
<path d="M92.25 74.25C95.9779 74.25 99 71.2279 99 67.5C99 63.7721 95.9779 60.75 92.25 60.75C88.5221 60.75 85.5 63.7721 85.5 67.5C85.5 71.2279 88.5221 74.25 92.25 74.25Z" fill="#E386BD"/>
<path d="M92.25 69.75C90.854 69.7502 89.4923 69.3175 88.3525 68.5116C87.2126 67.7056 86.3506 66.5661 85.8853 65.25C85.5257 66.2681 85.4156 67.3575 85.5642 68.4269C85.7128 69.4963 86.1158 70.5145 86.7393 71.3959C87.3628 72.2774 88.1886 72.9964 89.1475 73.4927C90.1064 73.9889 91.1703 74.2479 92.25 74.2479C93.3297 74.2479 94.3936 73.9889 95.3525 73.4927C96.3114 72.9964 97.1372 72.2774 97.7607 71.3959C98.3842 70.5145 98.7872 69.4963 98.9358 68.4269C99.0844 67.3575 98.9743 66.2681 98.6147 65.25C98.1494 66.5661 97.2874 67.7056 96.1476 68.5116C95.0077 69.3175 93.646 69.7502 92.25 69.75Z" fill="#D15C9C"/>
<path d="M92.25 76.5C90.47 76.5 88.7299 75.9722 87.2499 74.9832C85.7698 73.9943 84.6163 72.5887 83.9351 70.9442C83.2539 69.2996 83.0757 67.49 83.4229 65.7442C83.7702 63.9984 84.6274 62.3947 85.886 61.136C87.1447 59.8774 88.7484 59.0202 90.4942 58.6729C92.24 58.3257 94.0496 58.5039 95.6942 59.1851C97.3387 59.8663 98.7443 61.0198 99.7332 62.4999C100.722 63.9799 101.25 65.72 101.25 67.5C101.25 69.887 100.302 72.1761 98.614 73.864C96.9261 75.5518 94.637 76.5 92.25 76.5ZM92.25 63C91.36 63 90.49 63.2639 89.7499 63.7584C89.0099 64.2529 88.4331 64.9557 88.0925 65.7779C87.752 66.6002 87.6628 67.505 87.8365 68.3779C88.0101 69.2508 88.4387 70.0526 89.068 70.682C89.6974 71.3113 90.4992 71.7399 91.3721 71.9135C92.245 72.0872 93.1498 71.9981 93.9721 71.6575C94.7943 71.3169 95.4972 70.7401 95.9916 70.0001C96.4861 69.2601 96.75 68.39 96.75 67.5C96.75 66.3065 96.2759 65.1619 95.432 64.318C94.5881 63.4741 93.4435 63 92.25 63Z" fill="black"/>
</g>
<defs>
<clipPath id="clip0_254_392">
<rect width="144" height="144" fill="white"/>
</clipPath>
</defs>
</svg>
