<svg width="130" height="118" viewBox="0 0 130 118" fill="none" xmlns="http://www.w3.org/2000/svg">
<path d="M97.5 23.9688H32.5V94.0312C32.5 101.159 47.0507 106.938 65 106.938C82.9493 106.938 97.5 101.159 97.5 94.0312V23.9688Z" fill="#6D4534"/>
<path d="M64.9995 36.8748C82.9488 36.8748 97.4995 31.0964 97.4995 23.9685C97.4995 16.8406 82.9488 11.0623 64.9995 11.0623C47.0505 11.0623 32.4996 16.8406 32.4996 23.9685C32.4996 26.3166 33.8027 28.3249 36.5621 30.2218C36.6527 30.2866 36.4688 30.1576 36.5621 30.2218V53.4687C36.5621 54.4868 37.4716 55.3124 38.5934 55.3124C39.7152 55.3124 40.6246 54.4868 40.6246 53.4687V32.5056C40.7342 32.5565 40.5131 32.4554 40.6246 32.5056C46.5854 35.2727 55.111 36.8748 64.9995 36.8748ZM111.124 39.7058L97.4999 52.0722V94.0312C97.4999 97.3042 94.4315 100.293 89.3745 102.568V86.6562C89.3745 85.6381 88.4653 84.8124 87.3432 84.8124C86.2321 84.8124 85.3295 85.6222 85.3124 86.6271V51.3086C85.3124 48.8634 86.3825 46.5189 88.287 44.7898L102.506 31.8836C104.093 30.4435 106.664 30.4435 108.251 31.8836L111.124 34.491C112.71 35.9311 112.71 38.2659 111.124 39.7058ZM16.8447 71.0496L32.4997 85.2597V94.0312C32.4998 98.107 37.2572 101.741 44.6874 104.107V84.4961C44.6874 82.0509 43.6173 79.706 41.7124 77.9773L25.4625 63.2273C23.876 61.7873 21.3038 61.7873 19.7173 63.2273L16.8447 65.8347C15.2582 67.2747 15.2582 69.6096 16.8447 71.0496ZM48.7495 57.1562C48.7495 56.1381 49.6591 55.3124 50.7807 55.3124C51.9028 55.3124 52.812 56.1381 52.812 57.1562V71.9062C52.812 72.9243 51.9028 73.7499 50.7807 73.7499C49.6591 73.7499 48.7495 72.9243 48.7495 71.9062V57.1562Z" fill="#A56953"/>
<path d="M93.4375 23.0469C93.4375 28.6474 80.7056 33.1875 65 33.1875C49.2944 33.1875 36.5625 28.6474 36.5625 23.0469C36.5625 17.4464 49.2944 12.9062 65 12.9062C80.7056 12.9062 93.4375 17.4464 93.4375 23.0469Z" fill="#F3AD61"/>
<path d="M65 29.5C76.2182 29.5 85.3125 26.4045 85.3125 22.5859C85.3125 18.7674 76.2182 15.6719 65 15.6719C53.7818 15.6719 44.6875 18.7674 44.6875 22.5859C44.6875 26.4045 53.7818 29.5 65 29.5ZM65 25.8125C58.2688 25.8125 52.8125 24.1615 52.8125 22.125C52.8125 20.0885 58.2688 18.4375 65 18.4375C71.7312 18.4375 77.1875 20.0885 77.1875 22.125C77.1875 24.1615 71.7312 25.8125 65 25.8125Z" fill="#6D4534"/>
</svg>
