<svg xmlns="http://www.w3.org/2000/svg" viewBox="0 0 500 500"><g id="freepik--background-simple--inject-11"><path d="M153.42,83.59c33,1.47,59.37,27.09,72.81,55.47,11.31,23.9,23,111.12,68.7,84,18.81-11.17,24.62-35.93,44.63-45.67,26-12.65,66.44,1.11,81.71,25.13,19,29.82,6.49,66.8-7.82,95.59C372.25,381,271.27,427.71,183.93,388.93,102.52,352.78,49.1,259.11,70.16,170.37c7.62-32.11,25-67.47,56.58-81.68A58.11,58.11,0,0,1,153.42,83.59Z" style="fill:#407BFF"></path><path d="M153.42,83.59c33,1.47,59.37,27.09,72.81,55.47,11.31,23.9,23,111.12,68.7,84,18.81-11.17,24.62-35.93,44.63-45.67,26-12.65,66.44,1.11,81.71,25.13,19,29.82,6.49,66.8-7.82,95.59C372.25,381,271.27,427.71,183.93,388.93,102.52,352.78,49.1,259.11,70.16,170.37c7.62-32.11,25-67.47,56.58-81.68A58.11,58.11,0,0,1,153.42,83.59Z" style="fill:#fff;opacity:0.9"></path></g><g id="freepik--Kite--inject-11"><path d="M115.39,169.18a8.12,8.12,0,0,1-3.62-.86.24.24,0,0,1-.12-.33.26.26,0,0,1,.34-.12,7.65,7.65,0,0,0,9.52-2.26,13.09,13.09,0,0,0,2.07-5.21c.16-.65.33-1.33.52-2,1.36-4.5,4.85-7.23,9.82-7.69,6.55-.61,7.12-1.45,7.16-1.62S141,149,141,149a.25.25,0,1,1,.29-.4.62.62,0,0,1,.25.65c-.09.33-.35,1.32-7.6,2-4.76.44-8.1,3-9.39,7.33-.19.63-.35,1.3-.51,2a13.58,13.58,0,0,1-2.17,5.4A8.33,8.33,0,0,1,115.39,169.18Z" style="fill:#263238"></path><g style="opacity:0.7000000000000001"><path d="M115.39,169.18a8.12,8.12,0,0,1-3.62-.86.24.24,0,0,1-.12-.33.26.26,0,0,1,.34-.12,7.65,7.65,0,0,0,9.52-2.26,13.09,13.09,0,0,0,2.07-5.21c.16-.65.33-1.33.52-2,1.36-4.5,4.85-7.23,9.82-7.69,6.55-.61,7.12-1.45,7.16-1.62S141,149,141,149a.25.25,0,1,1,.29-.4.62.62,0,0,1,.25.65c-.09.33-.35,1.32-7.6,2-4.76.44-8.1,3-9.39,7.33-.19.63-.35,1.3-.51,2a13.58,13.58,0,0,1-2.17,5.4A8.33,8.33,0,0,1,115.39,169.18Z" style="fill:#fff"></path></g><polygon points="163.94 120.33 139.66 122.57 140.17 150.36 165.73 141.52 163.94 120.33" style="fill:#407BFF"></polygon><polygon points="163.94 120.33 139.66 122.57 140.17 150.36 165.73 141.52 163.94 120.33" style="fill:#fff;opacity:0.6000000000000001"></polygon><path d="M139.66,122.57l.51,27.79c17.3-9.64,23.77-30,23.77-30Z" style="fill:#fff;opacity:0.2;isolation:isolate"></path><path d="M139.66,122.57a52.87,52.87,0,0,0,26.07,19l-1.79-21.19Z" style="fill:#fff;opacity:0.2;isolation:isolate"></path></g><g id="freepik--Fence--inject-11"><rect x="86.13" y="331.32" width="333.53" height="16" style="fill:#407BFF"></rect><rect x="86.13" y="331.32" width="333.53" height="16" style="fill:#fff;opacity:0.5"></rect><polygon points="94.89 412.7 79.35 412.7 79.35 314.63 87.12 309.1 94.89 314.63 94.89 412.7" style="fill:#407BFF"></polygon><polygon points="122.38 412.7 106.84 412.7 106.84 314.63 114.61 309.1 122.38 314.63 122.38 412.7" style="fill:#407BFF"></polygon><polygon points="149.87 412.7 134.33 412.7 134.33 314.63 142.1 309.1 149.87 314.63 149.87 412.7" style="fill:#407BFF"></polygon><polygon points="177.36 412.7 161.82 412.7 161.82 314.63 169.59 309.1 177.36 314.63 177.36 412.7" style="fill:#407BFF"></polygon><polygon points="204.85 412.7 189.32 412.7 189.32 314.63 197.08 309.1 204.85 314.63 204.85 412.7" style="fill:#407BFF"></polygon><polygon points="232.34 412.7 216.81 412.7 216.81 314.63 224.57 309.1 232.34 314.63 232.34 412.7" style="fill:#407BFF"></polygon><polygon points="259.83 412.7 244.3 412.7 244.3 314.63 252.07 309.1 259.83 314.63 259.83 412.7" style="fill:#407BFF"></polygon><polygon points="287.32 412.7 271.79 412.7 271.79 314.63 279.56 309.1 287.32 314.63 287.32 412.7" style="fill:#407BFF"></polygon><polygon points="314.82 412.7 299.28 412.7 299.28 314.63 307.05 309.1 314.82 314.63 314.82 412.7" style="fill:#407BFF"></polygon><polygon points="342.31 412.7 326.77 412.7 326.77 314.63 334.54 309.1 342.31 314.63 342.31 412.7" style="fill:#407BFF"></polygon><polygon points="369.8 412.7 354.26 412.7 354.26 314.63 362.03 309.1 369.8 314.63 369.8 412.7" style="fill:#407BFF"></polygon><polygon points="397.29 412.7 381.75 412.7 381.75 314.63 389.52 309.1 397.29 314.63 397.29 412.7" style="fill:#407BFF"></polygon><polygon points="424.78 412.7 409.24 412.7 409.24 314.63 417.01 309.1 424.78 314.63 424.78 412.7" style="fill:#407BFF"></polygon><g style="opacity:0.6000000000000001;isolation:isolate"><polygon points="94.89 412.7 79.35 412.7 79.35 314.63 87.12 309.1 94.89 314.63 94.89 412.7" style="fill:#fff"></polygon><polygon points="122.38 412.7 106.84 412.7 106.84 314.63 114.61 309.1 122.38 314.63 122.38 412.7" style="fill:#fff"></polygon><polygon points="149.87 412.7 134.33 412.7 134.33 314.63 142.1 309.1 149.87 314.63 149.87 412.7" style="fill:#fff"></polygon><polygon points="177.36 412.7 161.82 412.7 161.82 314.63 169.59 309.1 177.36 314.63 177.36 412.7" style="fill:#fff"></polygon><polygon points="204.85 412.7 189.32 412.7 189.32 314.63 197.08 309.1 204.85 314.63 204.85 412.7" style="fill:#fff"></polygon><polygon points="232.34 412.7 216.81 412.7 216.81 314.63 224.57 309.1 232.34 314.63 232.34 412.7" style="fill:#fff"></polygon><polygon points="259.83 412.7 244.3 412.7 244.3 314.63 252.07 309.1 259.83 314.63 259.83 412.7" style="fill:#fff"></polygon><polygon points="287.32 412.7 271.79 412.7 271.79 314.63 279.56 309.1 287.32 314.63 287.32 412.7" style="fill:#fff"></polygon><polygon points="314.82 412.7 299.28 412.7 299.28 314.63 307.05 309.1 314.82 314.63 314.82 412.7" style="fill:#fff"></polygon><polygon points="342.31 412.7 326.77 412.7 326.77 314.63 334.54 309.1 342.31 314.63 342.31 412.7" style="fill:#fff"></polygon><polygon points="369.8 412.7 354.26 412.7 354.26 314.63 362.03 309.1 369.8 314.63 369.8 412.7" style="fill:#fff"></polygon><polygon points="397.29 412.7 381.75 412.7 381.75 314.63 389.52 309.1 397.29 314.63 397.29 412.7" style="fill:#fff"></polygon><polygon points="424.78 412.7 409.24 412.7 409.24 314.63 417.01 309.1 424.78 314.63 424.78 412.7" style="fill:#fff"></polygon></g></g><g id="freepik--Plant--inject-11"><path d="M320.73,422.11h36.63S350.07,411,347,412.37c-4,1.84-7-8.27-11.53-5.87-1.57.84-.8,3.54-1.8,4.63-1.64,1.8-3.73,1.45-5.71,2.44C324,415.51,322.65,418.07,320.73,422.11Z" style="fill:#407BFF"></path><path d="M320.73,422.11h36.63S350.07,411,347,412.37c-4,1.84-7-8.27-11.53-5.87-1.57.84-.8,3.54-1.8,4.63-1.64,1.8-3.73,1.45-5.71,2.44C324,415.51,322.65,418.07,320.73,422.11Z" style="opacity:0.2;isolation:isolate"></path><path d="M353.36,419s-2.4-13.95-.74-16,1.95,7.62,1.95,7.62,5.58-20.17,9.15-20.27-4.24,17.49-4.24,17.49,15.26-24.94,19.7-22.62-16,24.43-16,24.43,11.16-9.6,13.62-6.89-12.39,11-12.39,11,6.55-1.47,6.54.71S359.92,420.24,353.36,419Z" style="fill:#407BFF"></path><path d="M353.36,419s-2.4-13.95-.74-16,1.95,7.62,1.95,7.62,5.58-20.17,9.15-20.27-4.24,17.49-4.24,17.49,15.26-24.94,19.7-22.62-16,24.43-16,24.43,11.16-9.6,13.62-6.89-12.39,11-12.39,11,6.55-1.47,6.54.71S359.92,420.24,353.36,419Z" style="fill:#fff;opacity:0.2;isolation:isolate"></path><path d="M351.16,417s-11.47-2.08-12.58-3.94,6.44.64,6.44.64-14-10-13.09-12.8,12.33,8.22,12.33,8.22-15-18.85-11.93-21.63,14.38,19.26,14.38,19.26-4.28-11.35-1.48-12.48,5,12.69,5,12.69.71-5.48,2.39-4.86S354,412.29,351.16,417Z" style="fill:#407BFF"></path><path d="M351.16,417s-11.47-2.08-12.58-3.94,6.44.64,6.44.64-14-10-13.09-12.8,12.33,8.22,12.33,8.22-15-18.85-11.93-21.63,14.38,19.26,14.38,19.26-4.28-11.35-1.48-12.48,5,12.69,5,12.69.71-5.48,2.39-4.86S354,412.29,351.16,417Z" style="fill:#fff;opacity:0.2;isolation:isolate"></path><path d="M350.3,415.48s-11.08-11.09-10.88-14,6.62,5.64,6.62,5.64-7.81-21.81-4.64-24.18,7.32,18.54,7.32,18.54-2.1-32.32,3.4-33,1.12,32.3,1.12,32.3,4-15.81,7.94-14.93-4.2,17.87-4.2,17.87,5-5.51,6.37-3.53S357,412.42,350.3,415.48Z" style="fill:#407BFF"></path><path d="M350.3,415.48s-11.08-11.09-10.88-14,6.62,5.64,6.62,5.64-7.81-21.81-4.64-24.18,7.32,18.54,7.32,18.54-2.1-32.32,3.4-33,1.12,32.3,1.12,32.3,4-15.81,7.94-14.93-4.2,17.87-4.2,17.87,5-5.51,6.37-3.53S357,412.42,350.3,415.48Z" style="fill:#fff;opacity:0.4;isolation:isolate"></path><path d="M336.87,422.11h29.19s-5.81-8.89-8.29-7.76c-3.22,1.47-5.61-6.59-9.18-4.68-1.26.67-.64,2.83-1.44,3.69-1.3,1.44-3,1.16-4.55,1.95C339.5,416.85,338.4,418.89,336.87,422.11Z" style="fill:#407BFF"></path></g><g id="freepik--Character--inject-11"><g id="freepik--group--inject-11"><path d="M154.32,271.3s10,1.76,12.8,1.32,7.89-6.06,7.89-6.06l5.26,3.07s-7.67,9.79-10.74,10.45S154.32,279,154.32,279Z" style="fill:#b97964"></path><path d="M154.32,271.3s10,1.76,12.8,1.32,7.89-6.06,7.89-6.06l5.26,3.07s-7.67,9.79-10.74,10.45S154.32,279,154.32,279Z" style="opacity:0.2;isolation:isolate"></path><polygon points="164.76 269.22 163.18 286.23 160.38 285.58 148.47 282.8 148.61 272.59 148.68 267.58 164.76 269.22" style="fill:#407BFF"></polygon><path d="M160.38,285.58l-11.91-2.78.14-10.21.07-.22A16.2,16.2,0,0,1,160.38,285.58Z" style="opacity:0.2;isolation:isolate"></path><path d="M177.43,336.87s14.87,25.28,14.79,38.7-6,41.14-6,41.14l-7.38.12s1.83-33.7,1.39-39.63-16-29.06-16-29.06Z" style="fill:#b97964"></path><path d="M147.27,336.87s2.69,27.52,0,40.66-13.93,39.18-13.93,39.18l-7.26-1.32s8.36-32.7,9.08-38.6-5.08-37.61-5.08-37.61Z" style="fill:#b97964"></path><path d="M166.43,357.44a66.86,66.86,0,0,0-14.73-14.86,136.49,136.49,0,0,1-.92,18.25l-23,1.95a277.58,277.58,0,0,0-7.35-42.31l42.56-13.7,3.24,7.24s10.58,11.52,23.56,35.35Z" style="fill:#263238"></path><path d="M146.22,418.33c-3.06-.35-7-2.45-9.27-4.23,1.1-5.36.46-5.62-.87-5.36-1.6.3-3.71,3.56-3.71,3.56-5.52-2.64-7.73.92-7.73.92-2.54,8.29-2,7.53,1.48,8.2,3.06.14,4.52.06,8.37.26a70.57,70.57,0,0,0,10.28.33C148,421.7,147.63,418.48,146.22,418.33Z" style="fill:#407BFF"></path><path d="M198.22,418.33c-3.06-.35-7-2.45-9.27-4.23,1.1-5.36.46-5.62-.87-5.36-1.6.3-3.71,3.56-3.71,3.56-5.52-2.64-7.73.92-7.73.92-2.54,8.29-2,7.53,1.48,8.2,3.06.14,4.52.06,8.37.26a70.57,70.57,0,0,0,10.28.33C200,421.7,199.63,418.48,198.22,418.33Z" style="fill:#407BFF"></path><path d="M164.18,309.62l-43.8,10.85s-2.57-10.11-4.95-25.19c-.77-4.91-1.53-10.35-2.16-16.14q-.33-2.88-.6-5.87s13.47-8.51,36-5.69C148.68,267.58,156.1,291.37,164.18,309.62Z" style="fill:#407BFF"></path><ellipse cx="141.8" cy="291.02" rx="9.69" ry="12.18" transform="translate(-67.43 43.99) rotate(-14.29)" style="fill:#fff;opacity:0.6000000000000001;isolation:isolate"></ellipse><path d="M148.47,288.47c-5.21,5.28-13.27,4.33-13.27,4.33l-5,5.3-14.78-2.82c-.77-4.91-1.53-10.35-2.16-16.14a11.89,11.89,0,0,1,7.11-4.38,32.43,32.43,0,0,1,18,2.14l-.93,5.11Z" style="opacity:0.2;isolation:isolate"></path><path d="M138.23,262.08a6.35,6.35,0,0,0,1.1,4.8,7.15,7.15,0,0,0,.56.7,9.67,9.67,0,0,0,1,.94s.32,4.31-3.25,4.75a16.52,16.52,0,0,1-12.15-3.57,11.87,11.87,0,0,0,1-9.65,16,16,0,0,0-2.28-4.56L135,257.17l4.89.76A10.5,10.5,0,0,0,138.23,262.08Z" style="fill:#b97964"></path><path d="M138.23,262.08a6.35,6.35,0,0,0,1.1,4.8,7.15,7.15,0,0,0,.56.7c-5.85.14-10.76-4.49-13.35-7.53a16,16,0,0,0-2.28-4.56L135,257.17l4.89.76A10.5,10.5,0,0,0,138.23,262.08Z" style="opacity:0.2;isolation:isolate"></path><path d="M140,227.48s12.29,7.43,1.52,19C129.32,259.52,140,227.48,140,227.48Z" style="fill:#263238"></path><path d="M115.55,246.31c1.84,8.38,8,17.06,15.2,17.31,13.22.45,17.9-2.76,17.93-12.53.06-8.8-5-22-16-22.93S113,234.68,115.55,246.31Z" style="fill:#b97964"></path><path d="M142.08,232.93a23.63,23.63,0,0,1-12.38,2.58s-5,1.58-3.07,7.23-4.31,9.78-3.45,17.51c0,0-8.16.2-11.86-16.46-2.69-12.14,7.27-18.44,18.24-19.82C138.74,222.81,146.17,228.47,142.08,232.93Z" style="fill:#263238"></path><path d="M135.25,245.93c.2,1.07.93,1.84,1.63,1.7s1.1-1.11.91-2.18-.94-1.83-1.64-1.7S135.05,244.86,135.25,245.93Z" style="fill:#263238"></path><path d="M143.73,243.91c.19,1,.89,1.76,1.56,1.63s1.05-1.07.87-2.09-.89-1.75-1.57-1.62S143.54,242.89,143.73,243.91Z" style="fill:#263238"></path><path d="M137.33,240a.58.58,0,0,0,.12-.28.49.49,0,0,0-.49-.49,4.82,4.82,0,0,0-4,1.95.5.5,0,0,0,.14.68h0a.51.51,0,0,0,.68-.14h0a3.82,3.82,0,0,1,3.24-1.49A.54.54,0,0,0,137.33,240Z" style="fill:#263238"></path><path d="M145.71,238.86a.55.55,0,0,0,.24-.18.5.5,0,0,0-.19-.67,4.83,4.83,0,0,0-4.48-.2.49.49,0,0,0-.2.66h0a.52.52,0,0,0,.67.2h0a3.84,3.84,0,0,1,3.56.24A.51.51,0,0,0,145.71,238.86Z" style="fill:#263238"></path><path d="M142.29,245.46l-.27,4.75a5.82,5.82,0,0,0,3.37-.81A13.77,13.77,0,0,1,142.29,245.46Z" style="fill:#a24e3f"></path><path d="M125.84,250.05s-3.08-4.82-5.49-2.75-.46,10.65,3.52,10S128.1,252.55,125.84,250.05Z" style="fill:#b97964"></path><path d="M142.87,253.34a26.84,26.84,0,0,0-1.3,3.73l-.69-.07c-3.14-.35-4.48-1.55-5-2.77a4.45,4.45,0,0,1-.08-3c1.55,1.18,4.45,1.73,6,2C142.45,253.3,142.87,253.34,142.87,253.34Z" style="fill:#263238"></path><path d="M141.8,253.2l-.41,1.09c-2.95-.34-5-1-5.81-2a4.1,4.1,0,0,1,.21-1.08C137.34,252.42,140.24,253,141.8,253.2Z" style="fill:#fff"></path><path d="M140.88,257c-3.14-.35-4.48-1.55-5-2.77a10.15,10.15,0,0,1,3.41,1.08A3.82,3.82,0,0,1,140.88,257Z" style="fill:#de5753"></path><path d="M140,228.89c4.78.42,4.06,6.27-1.58,7.88l1.37-1.9s-4.24,3.39-8.43,2.28a4.74,4.74,0,0,0,2.66-3.61A5.77,5.77,0,0,1,140,228.89Z" style="fill:#263238"></path><path d="M143.15,228.08s-11.87-7.39-19.87-6.33S106.74,233.3,108.51,242s8.79,15,8.79,15-1.22-10.2,2.8-19.63,20.75-12.1,23.79-6.15Z" style="fill:#407BFF"></path><path d="M120.1,237.37s1.46-18.53,11.25-21.56c11.52-3.56,18.65,1.19,12.54,15.41,0,0-1.38-3.14-8.74-2.62C126.15,229.24,120.1,237.37,120.1,237.37Z" style="fill:#407BFF"></path><path d="M120.1,237.37s1.46-18.53,11.25-21.56c11.52-3.56,18.65,1.19,12.54,15.41,0,0-1.38-3.14-8.74-2.62C126.15,229.24,120.1,237.37,120.1,237.37Z" style="opacity:0.30000000000000004;isolation:isolate"></path><path d="M121.31,276.91s18.9,7.86,22.21,7.4,17.94-9.55,17.94-9.55l3.3,3.95s-12.89,10.88-19.37,12.66-22.11-3.75-22.11-3.75Z" style="fill:#b97964"></path><path d="M113,273.27c-7.51,6.42,4.28,18.24,17.25,23l7.17-17.67S117.39,269.55,113,273.27Z" style="fill:#407BFF"></path><path d="M157.68,278.73c-1-1.05,1.79-10,3.38-10.57s6.73-2,7.39-1.6.26,9.33,0,10.35S161.05,282.24,157.68,278.73Z" style="fill:#b97964"></path><path d="M171.37,273c-1-1,1.78-10,3.37-10.56s6.73-2,7.39-1.6.27,9.32,0,10.34S174.73,276.54,171.37,273Z" style="fill:#b97964"></path><path d="M171.37,273c-1-1,1.78-10,3.37-10.56s6.73-2,7.39-1.6.27,9.32,0,10.34S174.73,276.54,171.37,273Z" style="opacity:0.2;isolation:isolate"></path></g><polygon points="270.65 86.87 366.86 95.72 364.84 205.89 263.53 170.83 270.65 86.87" style="fill:#407BFF"></polygon><path d="M366.86,95.72l-2,110.17c-68.54-38.21-94.19-119-94.19-119Z" style="fill:#fff;opacity:0.2;isolation:isolate"></path><polygon points="293.99 101.08 321.68 103.46 307.83 109.79 340.27 112.61 327.22 122.06 356.76 131.32 317.74 125.61 325.38 116.2 298.34 112.61 305.07 105.44 293.99 101.08" style="fill:#fff;opacity:0.30000000000000004;isolation:isolate"></polygon><polygon points="274.26 115.54 275.25 127.09 279.27 123.01 279.39 150.22 287.24 142.13 293.24 167.49 284.51 150.47 274.49 160.29 276.75 130.77 272.05 137.43 274.26 115.54" style="fill:#fff;opacity:0.30000000000000004;isolation:isolate"></polygon><path d="M263.53,171.33h0a.5.5,0,0,1-.48-.52c0-.52.66-13,13.78-28.62,12.06-14.38,37.45-34.2,89.93-47a.5.5,0,1,1,.23,1c-52.21,12.7-77.43,32.37-89.39,46.63-12.91,15.39-13.55,27.9-13.55,28A.5.5,0,0,1,263.53,171.33Z" style="fill:#407BFF"></path><path d="M364.84,206.39a.42.42,0,0,1-.24-.07C296.67,168.46,270.43,87.83,270.17,87a.51.51,0,0,1,.33-.63.5.5,0,0,1,.62.33c.26.8,26.39,81.06,94,118.73a.5.5,0,0,1-.24.94Z" style="fill:#407BFF"></path><g style="opacity:0.4"><path d="M263.53,171.33h0a.5.5,0,0,1-.48-.52c0-.52.66-13,13.78-28.62,12.06-14.38,37.45-34.2,89.93-47a.5.5,0,1,1,.23,1c-52.21,12.7-77.43,32.37-89.39,46.63-12.91,15.39-13.55,27.9-13.55,28A.5.5,0,0,1,263.53,171.33Z" style="fill:#fff"></path><path d="M364.84,206.39a.42.42,0,0,1-.24-.07C296.67,168.46,270.43,87.83,270.17,87a.51.51,0,0,1,.33-.63.5.5,0,0,1,.62.33c.26.8,26.39,81.06,94,118.73a.5.5,0,0,1-.24.94Z" style="fill:#fff"></path></g><polygon points="364.84 206.39 370.87 209.75 370.87 221.12 380.63 225.63 380.63 237.18 389.07 240.86 388.01 251.64 398.56 256 398.56 266.56 409.9 269.62 411.48 275.94 421.51 275.94 418.08 270.67 405.15 272.25 402.25 261.7 391.97 258.35 393.17 248.54 383.38 244.22 383.38 232.16 374.56 229.24 373.77 216.92 365.34 212.91 364.84 206.39" style="fill:#407BFF"></polygon><polygon points="366.97 96.2 376.27 98.32 374.69 108.14 383.38 109.79 383.38 119.73 393.17 119.73 393.17 128.38 405.94 128.38 409.11 137.48 421.51 137.48 426.12 146.38 438.78 144.21 443.92 151.16 437.2 151.16 429.68 141.35 419.4 142.27 413.46 133.27 401.59 133.27 400.01 124.15 388.54 124.15 388.54 115.97 377.86 112.61 380.23 104.36 370.34 102.28 366.97 96.2" style="fill:#407BFF"></polygon><polygon points="263.03 171.15 270.9 176.54 265.82 185.09 273.29 189.82 269.64 199.06 278.75 202.66 275.57 210.71 287.45 215.4 287.05 225.03 298.58 229.58 299.61 239.55 312.18 242.18 314.41 250.54 308.15 248.07 304.77 236.18 294.86 233.25 292.65 222.71 281.61 218.35 283.49 209.28 272.82 205.06 275.82 197.46 267.12 190.41 272.36 183.6 263.93 178.04 263.03 171.15" style="fill:#407BFF"></polygon><polygon points="267.97 158.01 267.87 157.53 293.11 152.32 342.24 103.11 342.59 103.47 293.36 152.78 267.97 158.01" style="fill:#263238"></polygon><path d="M336.64,187c-19.41-13.29-43.33-34.05-43.57-34.26l-.05-.05,0-.07-10.77-37,.48-.14,10.75,36.94c1.31,1.13,24.55,21.21,43.48,34.18Z" style="fill:#263238"></path><path d="M169.39,274.77c-.74-19.15,34.33-33.77,65.28-46.65,13.09-5.46,25.46-10.61,33.12-15.42C292.58,197.13,293,153,293,152.55h.5c0,.45-.4,44.86-25.42,60.57-7.7,4.84-20.09,10-33.2,15.46-30.79,12.82-65.7,27.36-65,46.17Z" style="fill:#263238"></path><path d="M178.79,264l-19.06,8.8c-1.08.5-1.37,2.2-.63,3.79s2.2,2.47,3.29,2l19.06-8.81c1.09-.5,1.37-2.19.64-3.78S179.88,263.53,178.79,264Z" style="fill:#263238"></path><path d="M178.79,264l-19.06,8.8c-1.08.5-1.37,2.2-.63,3.79s2.2,2.47,3.29,2l19.06-8.81c1.09-.5,1.37-2.19.64-3.78S179.88,263.53,178.79,264Z" style="fill:#fff;opacity:0.2;isolation:isolate"></path><path d="M163,274.8c.74,1.59.45,3.29-.63,3.79s-2.56-.38-3.29-2-.45-3.29.63-3.79S162.29,273.22,163,274.8Z" style="fill:#fff;opacity:0.2;isolation:isolate"></path></g></svg>