<svg width="172" height="172" viewBox="0 0 172 172" fill="none" xmlns="http://www.w3.org/2000/svg">
<path d="M76.8039 109.511H29.2402V141.135H76.8039V109.511Z" fill="#FED1AD"/>
<path d="M68.521 113.989L76.8039 141.135L105.178 132.478C108.122 131.58 110.922 130.264 113.491 128.57L149.757 104.662C151.107 103.779 152.14 102.489 152.704 100.978C153.269 99.4667 153.336 97.8148 152.895 96.2632C152.611 95.2971 152.137 94.3971 151.502 93.6158C150.866 92.8345 150.082 92.1874 149.194 91.7121C148.306 91.2369 147.333 90.9431 146.33 90.8478C145.327 90.7525 144.316 90.8576 143.354 91.157L68.521 113.989Z" fill="#FED1AD"/>
<path d="M149.756 104.657L113.491 128.575C110.924 130.268 108.127 131.584 105.186 132.483L76.8033 141.143H29.2393V136.779H76.8033L105.186 128.136C108.127 127.237 110.924 125.921 113.491 124.228L149.756 100.31C151.252 99.3288 152.349 97.8477 152.851 96.1316C152.868 96.1823 152.885 96.2162 152.902 96.266C153.337 97.8173 153.267 99.467 152.701 100.976C152.136 102.484 151.104 103.774 149.756 104.657Z" fill="#FEC89D"/>
<path d="M107.199 102.187L88.5931 118.746L69.5132 113.689L107.199 102.187Z" fill="#FEC89D"/>
<path d="M56.7871 110.327L95.6749 88.75C96.6313 88.2194 97.7259 87.9904 98.8149 88.0932C99.9038 88.196 100.936 88.6256 101.777 89.3258C102.79 90.1708 103.461 91.3567 103.663 92.6611C103.865 93.9654 103.585 95.2986 102.874 96.4107L88.593 118.754L56.7871 110.327Z" fill="#FED1AD"/>
<path d="M50.4443 103.259H21.9914C20.2398 103.259 18.8198 104.679 18.8198 106.43V141.408C18.8198 143.159 20.2398 144.579 21.9914 144.579H50.4443C52.1959 144.579 53.6159 143.159 53.6159 141.408V106.43C53.6159 104.679 52.1959 103.259 50.4443 103.259Z" fill="#42A147"/>
<path d="M44.1011 103.259H50.5585C50.9599 103.259 51.3574 103.338 51.7283 103.491C52.0992 103.645 52.4362 103.87 52.7201 104.154C53.004 104.438 53.2292 104.775 53.3828 105.146C53.5364 105.517 53.6155 105.914 53.6155 106.316V141.521C53.6155 142.332 53.2934 143.109 52.7201 143.682C52.1468 144.256 51.3692 144.578 50.5585 144.578H44.1011V103.257V103.259Z" fill="#358437"/>
<path opacity="0.3" d="M53.623 129.721V141.409C53.6204 142.25 53.284 143.055 52.6878 143.648C52.0915 144.241 51.2841 144.574 50.443 144.572H21.9928C21.1517 144.574 20.3442 144.242 19.7479 143.648C19.1515 143.055 18.8151 142.25 18.8125 141.409V129.721H53.623Z" fill="#006838"/>
<path d="M144.905 66.4763C141.635 68.6514 138.831 71.4558 136.656 74.7259C136.543 74.8882 136.393 75.0209 136.219 75.1125C136.044 75.2041 135.849 75.2519 135.652 75.2519C135.455 75.2519 135.26 75.2041 135.085 75.1125C134.911 75.0209 134.761 74.8882 134.648 74.7259C132.473 71.4558 129.668 68.6514 126.398 66.4763C126.236 66.364 126.103 66.214 126.012 66.0392C125.92 65.8643 125.872 65.6699 125.872 65.4726C125.872 65.2752 125.92 65.0808 126.012 64.9059C126.103 64.7311 126.236 64.5811 126.398 64.4688C129.668 62.2934 132.473 59.489 134.648 56.2188C134.761 56.0565 134.911 55.9239 135.085 55.8323C135.26 55.7407 135.455 55.6928 135.652 55.6928C135.849 55.6928 136.044 55.7407 136.219 55.8323C136.393 55.9239 136.543 56.0565 136.656 56.2188C138.831 59.489 141.635 62.2935 144.905 64.4688C145.068 64.5811 145.2 64.7311 145.292 64.9059C145.384 65.0808 145.431 65.2752 145.431 65.4726C145.431 65.6699 145.384 65.8643 145.292 66.0392C145.2 66.214 145.068 66.364 144.905 66.4763ZM50.0733 43.004C44.9579 46.5371 41.6842 49.8108 38.1515 54.9261C37.9892 55.1606 37.7724 55.3523 37.5197 55.4846C37.2671 55.617 36.9861 55.6861 36.7009 55.6861C36.4157 55.6861 36.1348 55.617 35.8821 55.4846C35.6295 55.3523 35.4127 55.1606 35.2504 54.9261C31.7173 49.8108 28.4439 46.5371 23.3286 43.004C23.0941 42.8418 22.9024 42.625 22.7699 42.3724C22.6375 42.1198 22.5684 41.8389 22.5684 41.5536C22.5684 41.2684 22.6375 40.9875 22.7699 40.7348C22.9024 40.4822 23.0941 40.2655 23.3286 40.1032C28.4439 36.5702 31.7173 33.2965 35.2504 28.1811C35.4127 27.9466 35.6294 27.7549 35.8821 27.6225C36.1347 27.4901 36.4157 27.4209 36.7009 27.4209C36.9862 27.4209 37.2672 27.4901 37.5198 27.6225C37.7724 27.7549 37.9892 27.9466 38.1515 28.1811C41.6842 33.2965 44.9579 36.5702 50.0733 40.1032C50.3078 40.2655 50.4995 40.4822 50.6319 40.7348C50.7643 40.9875 50.8335 41.2684 50.8335 41.5536C50.8335 41.8389 50.7643 42.1198 50.6319 42.3724C50.4995 42.625 50.3078 42.8418 50.0733 43.004Z" fill="#FEBE4C"/>
<path d="M118.297 41.8817C118.705 44.4485 118.476 47.0763 117.629 49.5335C116.782 51.9907 115.344 54.2017 113.44 55.9716L113.428 55.9901L94.8797 74.5338C94.3325 75.0811 93.6828 75.5152 92.9678 75.8114C92.2528 76.1075 91.4865 76.26 90.7126 76.26C89.9387 76.26 89.1723 76.1075 88.4573 75.8114C87.7423 75.5152 87.0926 75.0811 86.5454 74.5338L68.0017 55.9857L67.9896 55.9733C66.4304 54.5209 65.1797 52.7693 64.3123 50.823C63.4448 48.8767 62.9782 46.7757 62.9405 44.6451C62.9027 42.5146 63.2945 40.3983 64.0925 38.4225C64.8905 36.4467 66.0783 34.6519 67.585 33.1452C69.0918 31.6385 70.8866 30.4507 72.8624 29.6528C74.8382 28.8548 76.9545 28.4631 79.085 28.5008C81.2155 28.5386 83.3166 29.0052 85.2629 29.8727C87.2091 30.7402 88.9607 31.9909 90.4131 33.5501C90.5226 33.6596 90.6204 33.7695 90.7178 33.8861C90.8092 33.7702 90.9066 33.6603 91.0104 33.5501C93.0378 31.3738 95.636 29.8111 98.5087 29.0402C101.381 28.2692 104.413 28.3211 107.258 29.1899C110.102 30.0586 112.645 31.7093 114.597 33.9537C116.549 36.198 117.831 38.9457 118.297 41.8834L118.297 41.8817Z" fill="#EF4136"/>
</svg>
