<svg width="144" height="144" viewBox="0 0 144 144" fill="none" xmlns="http://www.w3.org/2000/svg">
<path d="M72 105C100.167 105 123 82.1665 123 54C123 25.8335 100.167 3 72 3C43.8335 3 21 25.8335 21 54C21 82.1665 43.8335 105 72 105Z" fill="#99EFFF"/>
<path d="M123 54.0001C122.991 67.1226 117.925 79.7369 108.854 89.2196C99.7835 98.7024 87.4066 104.324 74.2974 104.915C61.1882 105.506 48.3555 101.021 38.4681 92.3935C28.5808 83.7656 22.3996 71.6586 21.21 58.5901C30.7918 65.3848 42.2535 69.0236 54 69.0001C67.6543 68.9931 80.853 64.0874 91.1972 55.1746C101.541 46.2617 108.344 33.9333 110.37 20.4301C118.539 29.702 123.031 41.6431 123 54.0001Z" fill="#69E5FD"/>
<path d="M94.5 75H103.5C103.898 75 104.279 75.158 104.561 75.4393C104.842 75.7206 105 76.1022 105 76.5C105 76.8978 104.842 77.2794 104.561 77.5607C104.279 77.842 103.898 78 103.5 78H94.5C94.1022 78 93.7206 77.842 93.4393 77.5607C93.158 77.2794 93 76.8978 93 76.5C93 76.1022 93.158 75.7206 93.4393 75.4393C93.7206 75.158 94.1022 75 94.5 75Z" fill="#99EFFF"/>
<path d="M88.5 78C89.3284 78 90 77.3284 90 76.5C90 75.6716 89.3284 75 88.5 75C87.6716 75 87 75.6716 87 76.5C87 77.3284 87.6716 78 88.5 78Z" fill="#99EFFF"/>
<path d="M58.5 90H67.5C67.8978 90 68.2794 90.158 68.5607 90.4393C68.842 90.7206 69 91.1022 69 91.5C69 91.8978 68.842 92.2794 68.5607 92.5607C68.2794 92.842 67.8978 93 67.5 93H58.5C58.1022 93 57.7206 92.842 57.4393 92.5607C57.158 92.2794 57 91.8978 57 91.5C57 91.1022 57.158 90.7206 57.4393 90.4393C57.7206 90.158 58.1022 90 58.5 90Z" fill="#99EFFF"/>
<path d="M52.5 93C53.3284 93 54 92.3284 54 91.5C54 90.6716 53.3284 90 52.5 90C51.6716 90 51 90.6716 51 91.5C51 92.3284 51.6716 93 52.5 93Z" fill="#99EFFF"/>
<path d="M93 34.5V43.5C93 43.8978 92.842 44.2794 92.5607 44.5607C92.2794 44.842 91.8978 45 91.5 45C91.1022 45 90.7206 44.842 90.4393 44.5607C90.158 44.2794 90 43.8978 90 43.5V34.5C90 34.1022 90.158 33.7206 90.4393 33.4393C90.7206 33.158 91.1022 33 91.5 33C91.8978 33 92.2794 33.158 92.5607 33.4393C92.842 33.7206 93 34.1022 93 34.5Z" fill="#D6F9FF"/>
<path d="M91.5 30C92.3284 30 93 29.3284 93 28.5C93 27.6716 92.3284 27 91.5 27C90.6716 27 90 27.6716 90 28.5C90 29.3284 90.6716 30 91.5 30Z" fill="#D6F9FF"/>
<path d="M49.5 63H40.5C40.1022 63 39.7206 62.842 39.4393 62.5607C39.158 62.2794 39 61.8978 39 61.5C39 61.1022 39.158 60.7206 39.4393 60.4393C39.7206 60.158 40.1022 60 40.5 60H49.5C49.8978 60 50.2794 60.158 50.5607 60.4393C50.842 60.7206 51 61.1022 51 61.5C51 61.8978 50.842 62.2794 50.5607 62.5607C50.2794 62.842 49.8978 63 49.5 63Z" fill="#D6F9FF"/>
<path d="M55.5 63C56.3284 63 57 62.3284 57 61.5C57 60.6716 56.3284 60 55.5 60C54.6716 60 54 60.6716 54 61.5C54 62.3284 54.6716 63 55.5 63Z" fill="#D6F9FF"/>
<path d="M27.4229 49.5C27.359 49.5045 27.2948 49.5045 27.2309 49.5C26.8362 49.4499 26.4777 49.245 26.2341 48.9305C25.9905 48.616 25.8818 48.2177 25.9319 47.823C26.4842 43.5367 27.6523 39.3526 29.3999 35.4C29.4715 35.2094 29.5812 35.0353 29.7223 34.8885C29.8633 34.7416 30.0328 34.625 30.2204 34.5458C30.408 34.4666 30.6098 34.4264 30.8134 34.4276C31.017 34.4289 31.2183 34.4716 31.4049 34.5532C31.5914 34.6348 31.7595 34.7535 31.8987 34.9021C32.0379 35.0507 32.1454 35.2261 32.2147 35.4176C32.2839 35.6091 32.3134 35.8127 32.3014 36.016C32.2894 36.2193 32.2362 36.418 32.1449 36.6C30.5137 40.2865 29.4215 44.1884 28.9019 48.186C28.8567 48.5472 28.6818 48.8797 28.4097 49.1214C28.1376 49.3632 27.7869 49.4977 27.4229 49.5Z" fill="#D6F9FF"/>
<path d="M27 55.5C27.8284 55.5 28.5 54.8284 28.5 54C28.5 53.1716 27.8284 52.5 27 52.5C26.1716 52.5 25.5 53.1716 25.5 54C25.5 54.8284 26.1716 55.5 27 55.5Z" fill="#D6F9FF"/>
<path d="M82.986 54.972C84.0828 54.972 84.972 54.0828 84.972 52.986C84.972 51.8892 84.0828 51 82.986 51C81.8892 51 81 51.8892 81 52.986C81 54.0828 81.8892 54.972 82.986 54.972Z" fill="#D6F9FF"/>
<path d="M88.0262 53.472C88.5746 53.472 89.0192 53.0274 89.0192 52.479C89.0192 51.9305 88.5746 51.486 88.0262 51.486C87.4778 51.486 87.0332 51.9305 87.0332 52.479C87.0332 53.0274 87.4778 53.472 88.0262 53.472Z" fill="#D6F9FF"/>
<path d="M103.986 89.4901C105.083 89.4901 105.972 88.6009 105.972 87.5041C105.972 86.4072 105.083 85.5181 103.986 85.5181C102.889 85.5181 102 86.4072 102 87.5041C102 88.6009 102.889 89.4901 103.986 89.4901Z" fill="#99EFFF"/>
<path d="M108.387 85.986C108.935 85.986 109.38 85.5414 109.38 84.993C109.38 84.4446 108.935 84 108.387 84C107.839 84 107.394 84.4446 107.394 84.993C107.394 85.5414 107.839 85.986 108.387 85.986Z" fill="#99EFFF"/>
<path d="M65.3942 81C66.491 81 67.3802 80.1108 67.3802 79.014C67.3802 77.9171 66.491 77.028 65.3942 77.028C64.2974 77.028 63.4082 77.9171 63.4082 79.014C63.4082 80.1108 64.2974 81 65.3942 81Z" fill="#99EFFF"/>
<path d="M60.993 77.496C61.5414 77.496 61.986 77.0514 61.986 76.503C61.986 75.9546 61.5414 75.51 60.993 75.51C60.4446 75.51 60 75.9546 60 76.503C60 77.0514 60.4446 77.496 60.993 77.496Z" fill="#99EFFF"/>
<path d="M42.4888 85.317C44.4687 85.317 46.0738 83.7119 46.0738 81.732C46.0738 79.752 44.4687 78.147 42.4888 78.147C40.5089 78.147 38.9038 79.752 38.9038 81.732C38.9038 83.7119 40.5089 85.317 42.4888 85.317Z" fill="#99EFFF"/>
<path d="M34.794 78.588C35.7848 78.588 36.588 77.7848 36.588 76.794C36.588 75.8032 35.7848 75 34.794 75C33.8032 75 33 75.8032 33 76.794C33 77.7848 33.8032 78.588 34.794 78.588Z" fill="#99EFFF"/>
<path d="M103.029 63C104.118 63 105 62.1175 105 61.029C105 59.9404 104.118 59.058 103.029 59.058C101.941 59.058 101.058 59.9404 101.058 61.029C101.058 62.1175 101.941 63 103.029 63Z" fill="#99EFFF"/>
<path d="M98.799 59.301C99.3441 59.301 99.786 58.8591 99.786 58.314C99.786 57.7689 99.3441 57.327 98.799 57.327C98.2539 57.327 97.812 57.7689 97.812 58.314C97.812 58.8591 98.2539 59.301 98.799 59.301Z" fill="#99EFFF"/>
<path d="M90.7889 18.654C92.8799 18.654 94.5749 16.959 94.5749 14.868C94.5749 12.7771 92.8799 11.082 90.7889 11.082C88.698 11.082 87.0029 12.7771 87.0029 14.868C87.0029 16.959 88.698 18.654 90.7889 18.654Z" fill="#D6F9FF"/>
<path d="M99.4648 21C100.51 21 101.358 20.1525 101.358 19.107C101.358 18.0615 100.51 17.214 99.4648 17.214C98.4193 17.214 97.5718 18.0615 97.5718 19.107C97.5718 20.1525 98.4193 21 99.4648 21Z" fill="#D6F9FF"/>
<path d="M84 27.03L72 39.03L78 48.03V54L69 57L72 66L78 69L72 75L63 72L60 57L54 51H45L36 42V17.88C40.7254 13.1516 46.3381 9.40314 52.516 6.84962C58.6939 4.2961 65.3152 2.98785 72 2.99996C73.11 2.99996 74.19 3.02996 75.3 3.11996L84 18.03V27.03Z" fill="#87A901"/>
<path d="M77.9998 69.0001L71.9998 75.0001L62.9998 72.0001L62.2798 68.4001C65.6132 67.915 68.8963 67.1318 72.0898 66.0601L77.9998 69.0001Z" fill="#66A100"/>
<path d="M67.5 24H76.5C76.8978 24 77.2794 24.158 77.5607 24.4393C77.842 24.7206 78 25.1022 78 25.5C78 25.8978 77.842 26.2794 77.5607 26.5607C77.2794 26.842 76.8978 27 76.5 27H67.5C67.1022 27 66.7206 26.842 66.4393 26.5607C66.158 26.2794 66 25.8978 66 25.5C66 25.1022 66.158 24.7206 66.4393 24.4393C66.7206 24.158 67.1022 24 67.5 24Z" fill="#ACCC5F"/>
<path d="M61.5 27C62.3284 27 63 26.3284 63 25.5C63 24.6716 62.3284 24 61.5 24C60.6716 24 60 24.6716 60 25.5C60 26.3284 60.6716 27 61.5 27Z" fill="#ACCC5F"/>
<path d="M48 17.46C47.6751 17.4605 47.3587 17.3555 47.0986 17.1607C46.8385 16.966 46.6486 16.692 46.5576 16.3801C46.4666 16.0681 46.4793 15.735 46.5939 15.431C46.7085 15.1269 46.9188 14.8682 47.193 14.694C52.7501 11.1333 59.0166 8.82676 65.556 7.93495C65.7513 7.90816 65.9498 7.92009 66.1404 7.97004C66.331 8.01999 66.5099 8.107 66.6669 8.22609C66.8239 8.34518 66.9559 8.49402 67.0553 8.66412C67.1548 8.83422 67.2198 9.02224 67.2465 9.21745C67.2733 9.41266 67.2614 9.61124 67.2115 9.80184C67.1615 9.99244 67.0745 10.1713 66.9554 10.3283C66.8363 10.4853 66.6875 10.6173 66.5174 10.7167C66.3473 10.8162 66.1593 10.8812 65.964 10.908C59.8537 11.7413 53.9986 13.8974 48.807 17.226C48.5651 17.3776 48.2856 17.4586 48 17.46Z" fill="#ACCC5F"/>
<path d="M43.5 21C44.3284 21 45 20.3284 45 19.5C45 18.6716 44.3284 18 43.5 18C42.6716 18 42 18.6716 42 19.5C42 20.3284 42.6716 21 43.5 21Z" fill="#ACCC5F"/>
<path d="M55.7879 42.648C58.4521 42.648 60.6119 40.4882 60.6119 37.824C60.6119 35.1598 58.4521 33 55.7879 33C53.1236 33 50.9639 35.1598 50.9639 37.824C50.9639 40.4882 53.1236 42.648 55.7879 42.648Z" fill="#ACCC5F"/>
<path d="M66.5878 46.119C67.9199 46.119 68.9998 45.0392 68.9998 43.707C68.9998 42.3749 67.9199 41.295 66.5878 41.295C65.2557 41.295 64.1758 42.3749 64.1758 43.707C64.1758 45.0392 65.2557 46.119 66.5878 46.119Z" fill="#ACCC5F"/>
<path d="M96.0001 81V99C89.9275 102.241 83.2611 104.218 76.4034 104.811C69.5456 105.404 62.6389 104.601 56.1001 102.45L75.0001 93L87.0001 81H96.0001Z" fill="#66A100"/>
<path d="M93 93V97.5C93 97.8978 92.842 98.2794 92.5607 98.5607C92.2794 98.842 91.8978 99 91.5 99C91.1022 99 90.7206 98.842 90.4393 98.5607C90.158 98.2794 90 97.8978 90 97.5V93C90 92.6022 90.158 92.2206 90.4393 91.9393C90.7206 91.658 91.1022 91.5 91.5 91.5C91.8978 91.5 92.2794 91.658 92.5607 91.9393C92.842 92.2206 93 92.6022 93 93Z" fill="#87A901"/>
<path d="M91.5 88.5C92.3284 88.5 93 87.8284 93 87C93 86.1716 92.3284 85.5 91.5 85.5C90.6716 85.5 90 86.1716 90 87C90 87.8284 90.6716 88.5 91.5 88.5Z" fill="#87A901"/>
<path d="M75.1441 101.712C76.7214 101.712 78.0001 100.433 78.0001 98.856C78.0001 97.2787 76.7214 96 75.1441 96C73.5668 96 72.2881 97.2787 72.2881 98.856C72.2881 100.433 73.5668 101.712 75.1441 101.712Z" fill="#87A901"/>
<path d="M68.3372 102.858C69.1258 102.858 69.7652 102.219 69.7652 101.43C69.7652 100.641 69.1258 100.002 68.3372 100.002C67.5485 100.002 66.9092 100.641 66.9092 101.43C66.9092 102.219 67.5485 102.858 68.3372 102.858Z" fill="#87A901"/>
<path d="M123 54C123.013 61.2437 121.468 68.4055 118.47 75H108L114 54.03L102 42.03V30.03L112.05 22.47C119.163 31.4378 123.024 42.5536 123 54Z" fill="#66A100"/>
<path d="M102 30.03L109.65 24.27C108.267 30.6664 105.769 36.7695 102.27 42.3L102 42.03V30.03ZM117.435 63.396C117.496 63.4166 117.558 63.4326 117.621 63.444C117.815 63.4809 118.015 63.4791 118.208 63.4387C118.401 63.3983 118.585 63.3201 118.748 63.2086C118.911 63.0971 119.05 62.9545 119.158 62.789C119.266 62.6234 119.34 62.4382 119.376 62.244C120.171 57.9989 120.35 53.6612 119.907 49.365C119.867 48.9672 119.671 48.6015 119.362 48.3483C119.052 48.0951 118.655 47.9752 118.257 48.015C117.859 48.0548 117.493 48.251 117.24 48.5604C116.987 48.8699 116.867 49.2672 116.907 49.665C117.32 53.675 117.154 57.7236 116.412 61.686C116.344 62.0469 116.41 62.4203 116.599 62.7354C116.787 63.0506 117.085 63.2857 117.435 63.396Z" fill="#87A901"/>
<path d="M116.448 69.306C117.277 69.306 117.948 68.6345 117.948 67.806C117.948 66.9776 117.277 66.306 116.448 66.306C115.62 66.306 114.948 66.9776 114.948 67.806C114.948 68.6345 115.62 69.306 116.448 69.306Z" fill="#87A901"/>
<path d="M112.464 36.4291C113.553 36.4291 114.435 35.5466 114.435 34.4581C114.435 33.3695 113.553 32.4871 112.464 32.4871C111.376 32.4871 110.493 33.3695 110.493 34.4581C110.493 35.5466 111.376 36.4291 112.464 36.4291Z" fill="#87A901"/>
<path d="M116.013 39C116.558 39 117 38.5581 117 38.013C117 37.4679 116.558 37.026 116.013 37.026C115.468 37.026 115.026 37.4679 115.026 38.013C115.026 38.5581 115.468 39 116.013 39Z" fill="#87A901"/>
<path d="M129.645 107.379C116.472 134.865 83.4841 142.815 61.0231 140.679C51.6001 139.77 34.1221 138.12 22.5901 122.7C14.3551 111.663 6.56705 90.15 17.0791 74.058C18.6994 71.5711 20.6893 69.3456 22.9801 67.458C27.4942 63.8679 32.8443 61.4801 38.5311 60.5174C44.2179 59.5548 50.0558 60.0487 55.5001 61.953C68.4631 66.99 65.2981 77.811 77.9671 83.793C94.5901 91.644 114.504 79.734 116.277 78.642C122.633 74.6984 127.997 69.3466 131.955 63C134.01 69.75 138.672 88.548 129.645 107.379Z" fill="#87A901"/>
<path d="M129.66 107.37C116.46 134.88 83.49 142.83 61.02 140.67C51.63 139.77 34.11 138.12 22.59 122.7C20.2488 119.545 18.276 116.133 16.71 112.53C24.8525 116.805 33.8334 119.242 43.02 119.67C65.49 121.8 98.46 113.85 111.66 86.37C112.681 84.2292 113.563 82.0246 114.3 79.77C115.32 79.2 116.01 78.81 116.28 78.63C122.637 74.6895 128.005 69.3422 131.97 63C134.01 69.75 138.66 88.56 129.66 107.37Z" fill="#66A100"/>
<path d="M75.6001 119.976C65.6553 120.025 55.8177 117.92 46.7641 113.805C33.7047 107.761 22.7754 97.9125 15.4081 85.551C9.33028 75.0529 6.0881 63.1542 6.0001 51.024C5.99693 50.63 6.0714 50.2393 6.21925 49.8741C6.3671 49.5089 6.58543 49.1764 6.86178 48.8956C7.13813 48.6148 7.46708 48.3912 7.82986 48.2375C8.19263 48.0839 8.58213 48.0031 8.9761 48H9.0001C9.79161 48 10.5511 48.3128 11.113 48.8702C11.6749 49.4276 11.9938 50.1845 12.0001 50.976C12.0801 62.062 15.041 72.9367 20.5921 82.533C27.3265 93.8274 37.3144 102.825 49.2481 108.348C73.6531 119.505 97.1911 111.144 103.824 108.315C104.556 108.003 105.382 107.995 106.12 108.292C106.858 108.589 107.448 109.167 107.76 109.899C108.072 110.631 108.08 111.457 107.783 112.195C107.486 112.933 106.908 113.523 106.176 113.835C96.4803 117.851 86.0944 119.937 75.6001 119.976Z" fill="#335E33"/>
<path d="M43.497 86.994C47.6375 86.994 50.994 83.6375 50.994 79.497C50.994 75.3565 47.6375 72 43.497 72C39.3565 72 36 75.3565 36 79.497C36 83.6375 39.3565 86.994 43.497 86.994Z" fill="#ACCC5F"/>
<path d="M60.2822 92.385C62.3516 92.385 64.0292 90.7074 64.0292 88.638C64.0292 86.5686 62.3516 84.891 60.2822 84.891C58.2127 84.891 56.5352 86.5686 56.5352 88.638C56.5352 90.7074 58.2127 92.385 60.2822 92.385Z" fill="#ACCC5F"/>
<path d="M64.108 136.416C66.7704 136.386 68.9039 134.228 68.8734 131.597C68.8429 128.966 66.6598 126.858 63.9974 126.889C61.335 126.92 59.2015 129.078 59.232 131.709C59.2626 134.34 61.4456 136.447 64.108 136.416Z" fill="#87A901"/>
<path d="M76.1595 136.279C77.4915 136.264 78.559 135.185 78.5437 133.869C78.5284 132.554 77.4362 131.5 76.1042 131.516C74.7722 131.531 73.7048 132.61 73.72 133.925C73.7353 135.241 74.8275 136.295 76.1595 136.279Z" fill="#87A901"/>
<path d="M129.734 90.8157C130.647 88.0724 129.188 85.117 126.476 84.2147C123.765 83.3124 120.826 84.8049 119.913 87.5482C119.001 90.2916 120.459 93.247 123.171 94.1492C125.883 95.0515 128.821 93.5591 129.734 90.8157Z" fill="#87A901"/>
<path d="M125.597 103.238C126.054 101.866 125.325 100.388 123.97 99.9368C122.615 99.486 121.146 100.233 120.69 101.606C120.233 102.978 120.961 104.456 122.317 104.907C123.672 105.358 125.14 104.611 125.597 103.238Z" fill="#87A901"/>
</svg>
