<svg width="70" height="70" viewBox="0 0 70 70" fill="none" xmlns="http://www.w3.org/2000/svg">
<path d="M51.0179 41.5709L8.5459 54.146L21.1369 11.674H51.0179V41.5709Z" fill="#407BFF"/>
<path d="M25.2159 15.761L14.3499 52.427L8.54785 54.144L21.1299 11.676H51.0159V15.761H25.2159Z" fill="#2F5EC6"/>
<path d="M15.997 7.84205C15.997 9.04705 15.026 10.018 13.821 10.018C13.119 10.018 12.488 9.69005 12.102 9.16405C11.552 9.69005 10.792 10.018 9.96102 10.018C9.08402 10.018 8.27702 9.65505 7.71502 9.07105C7.32902 9.64405 6.67402 10.018 5.92502 10.018C4.72002 10.018 3.74902 9.04705 3.74902 7.84205C3.74902 6.63705 4.72002 5.66605 5.92502 5.66605C6.29902 5.66605 6.66202 5.76005 6.96602 5.94705C7.36402 4.67205 8.55702 3.74805 9.96002 3.74805C11.34 3.74805 12.499 4.63705 12.919 5.86505C13.2 5.73605 13.504 5.66605 13.82 5.66605C15.026 5.66605 15.997 6.63705 15.997 7.84205Z" fill="#D9E0EF"/>
<path d="M66.25 19.47C66.25 20.675 65.279 21.646 64.074 21.646C63.372 21.646 62.741 21.318 62.355 20.792C61.805 21.318 61.045 21.646 60.214 21.646C59.337 21.646 58.53 21.283 57.968 20.699C57.582 21.272 56.927 21.646 56.178 21.646C54.973 21.646 54.002 20.675 54.002 19.47C54.002 18.265 54.973 17.294 56.178 17.294C56.552 17.294 56.915 17.388 57.219 17.575C57.617 16.3 58.81 15.376 60.213 15.376C61.593 15.376 62.752 16.265 63.172 17.493C63.453 17.364 63.757 17.294 64.073 17.294C65.279 17.295 66.25 18.265 66.25 19.47Z" fill="#D9E0EF"/>
<path d="M65.834 46.049L48.424 57.641C47.026 58.571 45.187 58.623 43.738 57.773L40.298 55.752C37.753 54.258 34.558 54.836 32.7 57.132L31.542 58.564C30.344 60.044 28.34 60.591 26.556 59.922L22.496 58.4C20.257 57.561 17.748 58.143 16.108 59.886L12.134 64.111C10.296 66.064 7.112 65.955 5.432 63.798C4.065 62.043 4.221 59.533 5.793 57.96L8.941 54.812L50.814 42.413L52.619 44.218C52.912 44.511 53.387 44.511 53.68 44.218C53.973 43.925 53.973 43.45 53.68 43.157L51.767 41.244V11.984L53.392 10.359C53.685 10.066 53.685 9.59096 53.392 9.29796C53.099 9.00496 52.624 9.00496 52.331 9.29796L50.706 10.923H21.446L19.541 9.01795C19.248 8.72495 18.773 8.72495 18.48 9.01795C18.187 9.31095 18.187 9.78596 18.48 10.079L20.289 11.888L7.881 53.751L4.734 56.898C2.627 59.004 2.419 62.367 4.25 64.718C6.478 67.578 10.738 67.783 13.229 65.136L17.203 60.911C18.428 59.61 20.3 59.174 21.972 59.802L26.032 61.324C28.421 62.22 31.105 61.49 32.71 59.505L33.868 58.073C35.232 56.387 37.671 55.944 39.54 57.043L42.98 59.064C44.92 60.205 47.383 60.135 49.256 58.887L66.667 47.295C67.012 47.066 67.105 46.6 66.876 46.255C66.645 45.911 66.177 45.82 65.834 46.049ZM11.164 52.59L36.078 27.676L49.608 41.206L11.164 52.59ZM50.268 39.745L37.138 26.615L50.268 13.485V39.745ZM49.208 12.424L36.078 25.554L22.948 12.424H49.208ZM21.498 13.095L35.017 26.614L10.105 51.527L21.498 13.095ZM7.782 10.102C9.023 10.939 10.783 10.967 12.039 10.163C13.918 11.618 16.746 10.297 16.746 7.84295C16.746 6.01395 15.082 4.65096 13.33 4.95896C11.83 2.32296 8.023 2.36195 6.565 4.98695C4.723 4.57695 3 5.98495 3 7.84195C3 10.331 5.909 11.653 7.782 10.102ZM5.925 6.41595C6.169 6.41595 6.393 6.47495 6.574 6.58595C6.771 6.70695 7.013 6.73096 7.23 6.64896C7.446 6.56796 7.613 6.39096 7.682 6.16996C8.367 3.97695 11.466 3.93595 12.211 6.10795C12.28 6.30795 12.43 6.46995 12.625 6.55395C12.819 6.63595 13.041 6.63495 13.233 6.54595C14.162 6.11795 15.246 6.85395 15.246 7.84095C15.246 9.22995 13.473 9.76295 12.705 8.71895C12.44 8.35495 11.911 8.30595 11.582 8.61995C10.686 9.47795 9.104 9.43595 8.255 8.54995C7.917 8.19895 7.355 8.26296 7.093 8.65196C6.326 9.78996 4.5 9.24995 4.5 7.84195C4.5 7.05595 5.139 6.41595 5.925 6.41595Z" fill="#2B2B2B"/>
<path d="M58.036 21.73C59.278 22.569 61.039 22.597 62.293 21.792C64.167 23.242 67 21.931 67 19.47C67 17.643 65.339 16.279 63.583 16.586C62.076 13.939 58.269 13.999 56.818 16.615C55.001 16.203 53.252 17.594 53.252 19.469C53.253 21.952 56.157 23.285 58.036 21.73ZM56.827 18.214C57.238 18.469 57.789 18.269 57.936 17.799C58.619 15.608 61.718 15.56 62.464 17.736C62.61 18.161 63.09 18.357 63.486 18.174C64.434 17.738 65.5 18.443 65.5 19.469C65.5 20.864 63.72 21.385 62.959 20.348C62.692 19.982 62.163 19.937 61.836 20.249C60.942 21.103 59.36 21.065 58.509 20.178C58.174 19.83 57.61 19.886 57.346 20.279C56.582 21.414 54.753 20.88 54.753 19.469C54.753 18.328 56.021 17.717 56.827 18.214Z" fill="#2B2B2B"/>
</svg>
